<svg xmlns="http://www.w3.org/2000/svg" width="550" height="550"><path fill="#0d4384" d="M260 37.74c2.233.01 4.466 0 6.7-.014 14.416-.016 28.438 1.372 42.425 5.024l3.103.797A150 150 0 0 1 336 52q2.026.87 4.054 1.734C358.264 61.708 381.794 75.191 393 92c-.179 4.697-2.385 6.902-5.563 10.187-3.254 3.435-6.392 6.9-9.312 10.625a458 458 0 0 1-10.25 12.5l-1.488 1.78c-8.297 9.731-8.297 9.731-14.075 10.22-6.019-1.204-10.61-5.61-15.312-9.312-20.206-15.5-45.732-22.41-70.938-22.375l-2.062.002c-36.73.156-67.654 15.457-93.547 40.892C146.393 171.032 130.894 206.03 127 240l-.255 2.01c-4.33 37.451 1.048 77.65 21.751 109.744 1.985 4.285 2.048 6.543 1.504 11.246-1.547 2.914-1.547 2.914-3.75 5.625l-2.489 3.101a783 783 0 0 1-2.76 3.274 791 791 0 0 1-8.997 10.523c-3.694 4.254-7.27 8.601-10.848 12.953A95 95 0 0 1 115 405c-18.587-9.439-30.66-47.954-36.969-66.723-7.95-24.676-11.463-49.283-11.406-75.152l.001-2.848C66.668 244.543 67.653 229.424 71 214c.21-.972.417-1.944.633-2.945 12.88-57.75 44.855-111.234 94.61-144.204 20.632-13.018 41.755-22.2 65.757-26.85.964-.19 1.928-.378 2.922-.572 8.393-1.473 16.585-1.738 25.078-1.69"/><path fill="#0f56a1" d="M483 214c-.537 8.51-1.47 16.84-2.891 25.246l-.56 3.402a4493 4493 0 0 1-1.799 10.79l-1.233 7.427q-1.207 7.274-2.422 14.548a3136 3136 0 0 0-2.732 16.692l-.684 4.219q-.597 3.68-1.182 7.361l-.524 3.198-.43 2.668c-.583 2.631-1.478 4.978-2.543 7.449-9.632-1.918-15.537-12.592-21-20a382 382 0 0 0-15.547 18.012c-2.788 3.395-5.645 6.725-8.515 10.05-3.386 3.926-6.724 7.869-9.938 11.938-3.308 4.182-6.725 8.259-10.188 12.312l-1.513 1.78C390.634 361.187 390.634 361.187 386 362a74 74 0 0 1-4.401.114l-2.608-.001-2.788-.015-2.875-.005q-4.539-.01-9.078-.031l-6.16-.013q-7.545-.017-15.09-.049l1 3c.117 1.741.179 3.486.209 5.231l.058 3.238c.058 4.902.107 9.804.138 14.707q.033 3.867.103 7.736c.067 3.729.094 7.456.113 11.186l.084 3.46c-.02 7.932-1.8 13.17-6.705 19.442-5.123 4.879-9.463 6.33-16.438 6.625l-2.38.113c-9.43.374-18.871.369-28.307.387l-2.464.008c-16.343.041-16.343.041-24.411-1.133l.492 2.917c.636 4.477.652 8.903.641 13.419l.003 2.663q0 2.776-.006 5.552-.005 4.212.007 8.426l-.004 5.421.006 2.511c-.022 5.434-.459 10.698-1.139 16.091l3.594.371c4.036.445 8.045 1.007 12.062 1.602 43.613 6.207 89.032 5.13 130.817-10.09C413 484 413 484 415 484v2c-13.376 6.7-26.563 12.976-41 17l-2.345.662c-26.537 7.314-54.1 9.57-81.53 9.65l-2.936.011c-17.088.025-33.954-1.109-50.972-2.542-28.428-2.336-56.886-2.374-85.393-2.541l-2.81-.017q-6.61-.044-13.219-.059l-4.676-.022-2.159.001c-4.847-.03-4.847-.03-5.96-1.143-.817-5.277-1.128-10.371-1.133-15.719l-.003-2.128q0-2.208.006-4.416.005-3.348-.007-6.694l.004-4.324.004-3.908c.136-4.009.574-7.842 1.129-11.811a143 143 0 0 1 18.435-1.129l2.714-.006q4.392-.004 8.785.002l6.135-.003q6.404-.001 12.807.006 8.22.006 16.44-.004 6.322-.005 12.644 0 3.033.001 6.066-.002 4.222-.003 8.444.007l2.543-.007c5.758.022 5.758.022 7.987 1.136v-61c3.513-1.171 6.664-1.132 10.317-1.114h2.248c2.451.001 4.902.009 7.353.016l5.099.005q6.71.006 13.42.024c5.367.012 10.734.017 16.102.023 8.153.009 16.307.029 24.461.046v-73c4.178-2.089 5.958-2.244 10.513-2.227l1.952-.001c2.121.001 4.242.017 6.363.033l4.422.008c3.873.008 7.747.028 11.62.05 3.955.02 7.909.029 11.864.039q11.634.034 23.266.098l.923-1.894c1.062-2.076 2.222-3.702 3.694-5.504l1.571-1.931 1.687-2.046 1.749-2.137c4.306-5.242 8.697-10.407 13.129-15.541 4.515-5.236 8.892-10.577 13.247-15.947q2.53-3.096 5.062-6.188c.378-.46.378-.46 2.286-2.792L419 265l-2.652-.793c-7.063-2.546-14.759-7.143-19.348-13.207.09-1.972.09-1.972 1-4 9.207-6.537 21.63-9.824 32.125-13.75l5.615-2.119q5.553-2.098 11.109-4.188a3045 3045 0 0 0 20.651-7.881l3.211-1.231 2.883-1.108 2.459-.945C480.504 214 480.504 214 483 214"/><path fill="#b8bdc5" d="M275.58 154.1c3.682.036 7.364.064 11.046.093q10.418.085 20.834.18 11.877.108 23.754.204 24.393.202 48.786.423c-.653 3.659-1.286 5.815-3.696 8.672l-1.659 2-1.77 2.078-3.586 4.309-1.738 2.074a216 216 0 0 0-5.3 6.68 538 538 0 0 1-7.876 9.937l-2.164 2.672c-6.762 7.885-6.762 7.885-12.21 8.578-3.07.148-6.135.165-9.207.174l-2.786.02q-2.99.021-5.98.036-4.743.026-9.486.065-13.485.104-26.97.182-8.258.05-16.514.12-3.134.025-6.269.037c-28.249.118-28.249.118-36.129 5.636-4.704 4.903-5.868 11.846-6.16 18.418.264 5.977 1.731 10.737 6.183 14.879 5.06 3.819 9.098 4.552 15.424 4.607l3.745.04 1.995.016q3.12.026 6.238.065 8.867.104 17.735.182 5.433.05 10.868.12c2.023.024 4.047.037 6.07.05 19.046.25 38.535 3.089 53.054 16.603C352.886 275.32 360.598 292.436 360 309c-3.946 1.316-7.784 1.275-11.903 1.387l-2.648.078q-2.773.077-5.546.148c-2.827.075-5.653.165-8.479.257l-5.389.142-2.56.088-2.397.052-2.099.058c-2.392-.253-3.938-.951-5.979-2.21-1.422-2.242-1.422-2.242-2.75-4.875-2.888-5.04-5.639-7.557-11.25-9.125-6.97-1.321-13.969-1.19-21.043-1.246q-2.061-.023-4.12-.048-8.7-.105-17.4-.182a2537 2537 0 0 1-10.684-.121c-1.989-.023-3.979-.036-5.968-.05C223.1 293.13 208.72 290.413 196 279l-2.12-1.875c-13.326-12.493-19.645-31.063-20.285-49.016-.267-19.905 5.751-38.537 18.995-53.644 22.862-23.38 52.663-20.661 82.99-20.364"/><path fill="#d4dfe8" d="M260 37.74c2.233.01 4.466 0 6.7-.014 14.416-.016 28.438 1.372 42.425 5.024l3.103.797A150 150 0 0 1 336 52q2.026.87 4.054 1.734C358.264 61.708 381.794 75.191 393 92c-.179 4.697-2.385 6.902-5.563 10.187-3.274 3.456-6.43 6.943-9.375 10.688l-1.926 2.426a864 864 0 0 0-3.454 4.384 507 507 0 0 1-4.307 5.377l-1.344 1.736c-2.35 2.87-3.732 4.123-7.367 5.073l-2.664.13c-.318-.57-.635-1.138-.96-1.724-4.006-6.627-8.454-10.318-15.04-14.277l-1.76-1.063c-30.957-18.516-67.416-28.11-103.287-19.438-30.99 7.941-58.918 24.171-79.05 49.364-1.846 2.16-2.765 3.076-5.41 4.238-3.319-.135-5.42-1.204-8.368-2.726-10.28-5.018-21.152-8.199-32.125-11.375v-4c-9.389 16.622-17.886 33.247-25.138 50.914A660 660 0 0 1 82 191l-.95 2.215-.738 1.722L79 198c-1.3-3.899-.399-5.664.812-9.563 1.236-4.043 2.345-7.993 2.938-12.187 3.89-20.557 18.061-41.663 30.25-58.25l1.265-1.74C142.66 77.39 184.571 49.19 232 40l2.922-.57c8.393-1.474 16.585-1.739 25.078-1.69"/><path fill="#60a8dc" d="M483 214c-.537 8.51-1.47 16.84-2.891 25.246l-.56 3.402a4493 4493 0 0 1-1.799 10.79l-1.233 7.427q-1.207 7.274-2.422 14.548a3136 3136 0 0 0-2.732 16.692l-.684 4.219q-.597 3.68-1.182 7.361l-.524 3.198-.43 2.668c-.583 2.631-1.478 4.978-2.543 7.449-2.915-2.817-5.49-5.756-8-8.938l-2-2.527-2-2.535-2.254-2.598C450 298 450 298 450.062 294.5 450 291 450 291 447.5 288.062L445 286c-5.327 5.066-10.049 10.415-14.648 16.145-2.367 2.873-4.83 5.618-7.352 8.355-4.412 4.805-8.561 9.768-12.654 14.845a695 695 0 0 1-4.705 5.706l-1.82 2.193a1780 1780 0 0 1-3.509 4.215l-1.687 2.037-1.802 2.102C395 344 395 344 393.347 347.166c-4.592 8.038-4.592 8.038-9.597 9.484-6.7 1.006-13.437.736-20.188.538a1062 1062 0 0 0-6.185-.045 482 482 0 0 1-8.673-.101l-2.581-.057-2.273-.062C342 357 342 357 340 358l-.365 1.963C339 362 339 362 337.193 362.957l-2.349.641-2.602.74-2.742.724q-2.641.735-5.281 1.473l-2.617.719c-3.911 1.121-7.758 2.417-11.602 3.746l.035 3.297c.133 17.862.133 17.862-1.035 25.703-1.946 1.946-5.662 1.157-8.318 1.161l-2.321.015q-3.817.021-7.634.027l-5.288.017q-5.551.016-11.102.02c-4.747.006-9.494.03-14.241.058-3.643.019-7.285.024-10.928.026q-2.626.005-5.251.024c-2.447.017-4.893.015-7.34.008l-2.201.028c-4.931-.041-4.931-.041-7.35-1.906L226 398c2.441-2.441 3.741-2.235 7.072-2.249l2.132.022 2.247-.001c2.456.001 4.913.017 7.369.033l5.104.008c4.481.008 8.963.028 13.444.05 5.375.024 10.75.033 16.124.045 8.17.019 16.339.057 24.508.092v-73c4.178-2.089 5.958-2.244 10.513-2.227l1.952-.001c2.121.001 4.242.017 6.363.033l4.422.008c3.873.008 7.747.028 11.62.05 3.955.02 7.909.029 11.864.039q11.634.034 23.266.098l.923-1.894c1.062-2.076 2.222-3.702 3.694-5.504l1.571-1.931 1.687-2.046 1.749-2.137c4.306-5.242 8.697-10.407 13.129-15.541 4.515-5.236 8.892-10.577 13.247-15.947q2.53-3.096 5.062-6.188l2.286-2.792L419 265l-2.652-.793c-7.063-2.546-14.759-7.143-19.348-13.207.09-1.972.09-1.972 1-4 9.207-6.537 21.63-9.824 32.125-13.75l5.615-2.119q5.553-2.098 11.109-4.188a3045 3045 0 0 0 20.651-7.881l3.211-1.231 2.883-1.108 2.459-.945C480.504 214 480.504 214 483 214"/><path fill="#255585" d="m191.385 339.88 2.715-.004 2.97.01h3.135c3.425 0 6.85.009 10.276.017l7.116.004q9.373.007 18.747.025 9.56.013 19.123.019c12.51.01 25.022.029 37.533.049v44c-3.63 1.21-6.976 1.168-10.757 1.19l-2.391.025q-2.57.025-5.141.046-4.074.032-8.148.076-8.656.088-17.313.163-10.013.089-20.024.192-4.004.039-8.008.068l-4.944.05-2.232.013c-11.555.139-11.555.139-14.795 2.4l-1.24 1.55-1.432 1.735-1.45 1.867-1.557 1.91A557 557 0 0 0 189 401a2461 2461 0 0 1-4.812 5.875c-.71.872-1.418 1.743-2.15 2.64-8.302 10.117-8.302 10.117-11.038 11.485a70 70 0 0 1-4.402.13l-2.761.009-2.99-.006-3.063.003q-3.212 0-6.423-.005c-3.281-.006-6.562 0-9.843.006l-6.233-.004-2.983.006-2.77-.01-2.438-.002C125 421 125 421 122 420c-.457-5.185.545-7.454 3.75-11.5l1.205-1.538c4.239-5.35 8.728-10.5 13.2-15.653a247 247 0 0 0 6.908-8.371c6.93-8.758 14.214-17.197 21.738-25.45 3.187-3.605 6.174-7.364 9.156-11.14 3.957-4.547 7.373-6.475 13.428-6.468"/><path fill="#4694d1" d="m111 130 1 2-1 3 1.992.445c6.523 1.538 12.896 3.4 19.258 5.493l2.253.729c4.466 1.493 8.548 3.274 12.664 5.566C149 148 149 148 153 148a70 70 0 0 1-4.504 7.949c-5.064 7.839-10.033 15.691-14.434 23.926l-1.031 1.901c-5.589 10.683-8.908 21.756-11.281 33.536l-.773 3.667c-1.864 8.971-3.132 17.58-3.145 26.736l-.01 2.467q-.007 2.574-.007 5.15c-.002 2.567-.021 5.134-.04 7.701-.028 8.999.316 17.764 1.611 26.68.456 3.218.66 5.149-.386 8.287v-2h-2l-1-3a109 109 0 0 0-6.938-4.875l-2.058-1.348C95.936 277.629 86.212 273.908 73 273c-.373 11.027.357 21.213 2.603 32.014.361 1.804.658 3.622.948 5.439 5.189 30.926 19.795 62.269 37.738 87.805C116 401 116 401 115.75 403.375L115 405c-18.586-9.439-30.661-47.954-36.969-66.723-7.951-24.675-11.463-49.283-11.406-75.152l.002-2.848C66.703 231.546 71.491 203.831 82 177c1.676 4.091.241 7.715-.938 11.75l-.591 2.113A654 654 0 0 1 79 196l.699-2.055c1.636-4.667 3.328-9.18 5.613-13.57 1.891-3.633 3.483-7.307 4.976-11.121C95.727 155.414 103.011 142.522 111 130"/><path fill="#072d69" d="m122 459 2 1v2l23 1-1 2h-2c2.367 2.812 4.087 3.495 7.688 4.062l2.972.477c4.327.597 8.661 1.126 12.999 1.639 5.787.702 11.505 1.676 17.23 2.769 9.919 1.852 19.719 2.246 29.799 2.241l3.762.001c7.59-.043 14.782-.517 22.273-1.732 5.674-.791 11.584-1.214 17.277-.457 2.27 3.404 2.365 5.165 2.625 9.188l.227 3.292L261 489h1l1-13h2l-1 17 3.594.371c4.036.445 8.045 1.007 12.062 1.602 43.613 6.207 89.032 5.13 130.817-10.09C413 484 413 484 415 484v2c-13.376 6.7-26.563 12.976-41 17l-2.345.662c-26.537 7.314-54.1 9.57-81.53 9.65l-2.936.011c-17.088.025-33.954-1.109-50.972-2.542-28.428-2.336-56.886-2.374-85.393-2.541l-2.81-.017q-6.61-.044-13.219-.059l-4.676-.022-2.159.001c-4.847-.03-4.847-.03-5.96-1.143-.819-5.289-1.128-10.394-1.133-15.754l-.003-2.135q0-2.214.006-4.429.005-3.364-.007-6.727a6261 6261 0 0 1 .008-8.258c.128-3.664.542-7.084 1.129-10.697"/><path fill="#2060a1" d="m295 95 2.12.472C313.725 99.357 330.162 107.075 344 117l2.512 1.738c4.943 3.59 7.887 6.72 10.488 12.262h5c-2.153 3.358-3.407 4.806-7.25 6.062-7.042-.117-11.194-3.545-16.44-7.875-20.106-16.534-46.526-23.598-72.248-23.562l-2.062.003c-36.731.155-67.654 15.456-93.547 40.892C146.394 171.032 130.895 206.028 127 240l-.254 2.01c-4.331 37.452 1.048 77.649 21.75 109.744 1.906 4.114 1.782 6.759 1.504 11.246l-2 1c-8.268-3.215-12.38-14.221-15.938-21.75l-1.293-2.737C124.031 324.894 119.365 309.921 117 294l2-1-.427-3.038c-1.373-10.313-1.916-20.463-1.889-30.863.003-2.466-.02-4.93-.045-7.396-.046-11.483 1.196-22.433 3.361-33.703l.586-3.076c6.398-31.067 23.881-58.998 45.929-81.4a138 138 0 0 0 3.551-3.813C200.534 96.585 252.446 85.465 295 95"/><path fill="#bbd7eb" d="M483 214c-.509 10.647-2.139 21.042-3.901 31.541-.476 2.848-.936 5.698-1.396 8.549q-.455 2.748-.914 5.496l-.407 2.551c-.864 5.041-2.236 9.222-4.382 13.863-.688 2.937-.688 2.937-1 5l-2-1v-25c-10.03-1.114-10.03-1.114-14.562.75-5.593 2.092-11.039 3.231-16.919 4.122-4.1.671-7.198 1.589-10.519 4.128l-1 3h-2l-.715 1.684c-1.598 2.88-3.59 4.98-5.847 7.378-4.576 4.933-8.868 10.041-13.092 15.279-2.761 3.404-5.557 6.778-8.346 10.159-15.753 19.117-15.753 19.117-17.681 22.108C376 326 376 326 372.824 326.601l-3.796-.033-2.1.002a435 435 0 0 1-6.85-.082q-2.379-.014-4.758-.021c-4.17-.019-8.338-.068-12.508-.124-4.256-.051-8.512-.074-12.769-.099-8.348-.053-16.695-.139-25.043-.244l-1-3c3.54-2.191 6.395-2.243 10.513-2.227l1.952-.001c2.121.001 4.242.017 6.363.033l4.422.008c3.873.008 7.747.028 11.62.05 3.955.02 7.909.029 11.864.039q11.634.034 23.266.098l.923-1.894c1.062-2.076 2.222-3.702 3.694-5.504l1.571-1.931 1.687-2.046 1.749-2.137c4.306-5.242 8.697-10.407 13.129-15.541 4.515-5.236 8.892-10.577 13.247-15.947q2.53-3.096 5.062-6.188l2.286-2.792L419 265l-2.652-.793c-7.063-2.546-14.759-7.143-19.348-13.207.09-1.972.09-1.972 1-4 9.207-6.537 21.63-9.824 32.125-13.75l5.615-2.119q5.553-2.098 11.109-4.188a3045 3045 0 0 0 20.651-7.881l3.211-1.231 2.883-1.108 2.459-.945C480.504 214 480.504 214 483 214"/><path fill="#3f546e" d="M264 95.563c.746 0 1.492 0 2.26-.002 13.299.042 25.99 1.45 38.74 5.44.847.263 1.694.527 2.566.8 14.434 4.882 27.986 12.448 39.887 21.926l1.761 1.394q1.683 1.347 3.336 2.73c2.511 2.026 4.075 3.113 7.329 3.43l2.121-.28c-2.153 3.357-3.407 4.804-7.25 6.061-7.042-.117-11.194-3.545-16.44-7.875-20.106-16.534-46.526-23.599-72.248-23.563l-2.062.004c-32.861.139-61.432 12.194-85.938 33.81C175 142 175 142 172 143.375c-11.032 5.976-18.668 21.654-24.998 32.156l-1.002 1.47h-1c-1.208-8.523.808-13.352 5.762-20.275 2.269-2.763 4.701-5.207 7.238-7.726 2.142-2.406 4.223-4.862 6.312-7.312C181.119 122.236 200.455 108.884 225 101c.722-.246 1.445-.49 2.189-.74 12.205-4 24.076-4.716 36.811-4.698"/><path fill="#8dc4e8" d="M467.25 253.875C469 255 469 255 470 257c.084 1.74.107 3.484.098 5.227l-.01 3.125-.026 3.273-.013 3.297q-.02 4.039-.049 8.078l3-10h1c-.548 8.574-1.667 16.979-3.102 25.448-.339 2.01-.667 4.022-.994 6.034l-.65 3.889-.584 3.498c-.621 2.902-1.473 5.423-2.67 8.131-3.081-2.773-4.688-5.063-6-9l2 1q1.078-6.028 2.136-12.061.361-2.048.728-4.096.526-2.956 1.042-5.913l.635-3.587c.435-3.166.544-6.153.459-9.343-22.677-4.157-22.677-4.157-28.66-.273-2.28 2.215-3.977 4.411-5.778 7.023-6.396 8.233-16.037 12.472-25.562 16.25-2.938.187-2.938.187-5 0 2.076-3.23 4.154-6.238 6.688-9.125C411 285 411 285 411.301 283.203c1.105-3.484 3.711-5.752 6.199-8.328 5.397-5.669 5.397-5.669 6.5-7.875h2l.297-1.867C427 263 427 263 430.25 260.875c4.648-2.141 9.321-2.66 14.359-3.305 4.456-.749 8.516-2.178 12.735-3.765 3.602-1.091 6.383-1.3 9.906.07"/><path fill="#2160a0" d="m191.385 339.88 2.715-.004 2.97.01h3.135c3.425 0 6.85.009 10.276.017l7.116.004q9.373.007 18.747.025 9.56.013 19.123.019c12.51.01 25.022.029 37.533.049v44c-6-4-6-4-6.681-6.657l.095-2.983.059-3.243.152-3.367.082-3.414q.106-4.169.293-8.336l-2.114.082c-6.203.136-11.351-.351-17.198-2.394l-2.01-.647c-3.081-1.02-5.95-2.18-8.846-3.646-4.241-2.09-8.188-2.516-12.875-2.584l-2.966-.051-3.178-.041-3.316-.056q-5.25-.086-10.497-.163c-37.106-.553-37.106-.553-41-2.5l1-3c2.806-.935 4.485-1.123 7.385-1.12"/><path fill="#0c4a87" d="m445 285 6 6-.27 3.145c.354 5.058 2.215 6.963 5.582 10.543l2.989 3.324 1.42 1.56C465 314.351 465 314.351 465 317c-4.296-1.374-6.497-3.238-9.438-6.625l-2.335-2.687A184 184 0 0 1 445 297a382 382 0 0 0-15.547 18.012c-2.788 3.395-5.645 6.725-8.515 10.05-3.386 3.926-6.724 7.869-9.938 11.938-3.308 4.182-6.725 8.259-10.188 12.312l-1.513 1.78C390.635 361.186 390.635 361.186 386 362a76 76 0 0 1-4.461.129l-2.649.01-2.835-.006-2.928.003q-3.059 0-6.118-.006-4.693-.005-9.388.007l-5.941-.004-2.848.006-2.629-.01-2.319-.002C342 362 342 362 340 361v-4c2.33-1.165 3.672-1.121 6.266-1.114l2.669.001 2.885.015 2.951.005q4.677.01 9.354.031l6.332.013q7.772.017 15.543.049l.92-1.891c1.087-2.122 2.29-3.775 3.803-5.613l1.617-1.977 1.722-2.081 1.777-2.166q1.768-2.153 3.539-4.302c2.094-2.543 4.17-5.101 6.247-7.658 4.578-5.587 9.237-11.104 13.92-16.603q1.47-1.727 2.937-3.457C437.709 292.291 437.709 292.291 445 285"/><path fill="#3194dd" d="M82 177c1.676 4.091.241 7.715-.938 11.75l-.591 2.113A654 654 0 0 1 79 196l3-7c1.296 3.889.287 6.618-.75 10.438l-1.047 3.996-.573 2.169c-15.882 60.428-6.286 121.762 23.911 176.173 3.322 5.682 6.964 11.097 10.748 16.482C116 401 116 401 115.75 403.375L115 405c-18.586-9.439-30.661-47.954-36.969-66.723-7.951-24.675-11.463-49.283-11.406-75.152l.002-2.848C66.703 231.546 71.491 203.831 82 177"/><path fill="#f2f2f5" d="M220 235h2c1.113 1.426 1.113 1.426 2.312 3.312 3.068 4.466 6.371 6.637 11.688 7.688 2.034.105 4.071.156 6.107.174l3.745.04 1.996.016q3.118.026 6.237.065 8.867.105 17.735.182 5.434.049 10.868.12 3.035.032 6.071.05c19.046.25 38.534 3.088 53.053 16.603C352.825 275.254 360 291.624 360 308h-3c-2.287-5.246-4.153-10.338-5.375-15.938-3.078-12.89-10.789-23.193-21.773-30.46-20.204-11.347-43.9-8.777-66.211-8.41q-4.044.065-8.088.097-3.773.03-7.544.113c-9.945.058-19.287-1.731-26.767-8.746-2.052-2.735-2.242-5.32-2.242-8.656z"/><path fill="#eef2f5" d="M275.378 154.1c3.654.036 7.308.064 10.962.093q10.338.085 20.674.18 11.787.108 23.573.204 24.206.202 48.413.423c-.809 2.446-.809 2.446-2 5-3.063.875-3.063.875-6 1l-1-1a94 94 0 0 0-5.24-.095l-3.446.012-3.814.03-3.99.019q-5.442.029-10.88.069-4.548.032-9.094.059-10.743.068-21.485.148-11.052.081-22.104.138-9.502.052-19 .123a3897 3897 0 0 1-11.337.07q-5.348.026-10.694.077c-1.914.015-3.827.02-5.74.027-7.584.082-14.733.903-22.176 2.323-2.33.359-4.664.682-7 1l-2-4q2.81-.976 5.625-1.937l3.164-1.09c17.126-5.188 36.913-3.046 54.59-2.872"/><path fill="#eff3f7" d="M425 265c-1.419 4.461-3.867 7.328-7.062 10.625-4.776 5.069-9.243 10.303-13.608 15.732-2.753 3.401-5.546 6.768-8.33 10.143-15.752 19.115-15.752 19.115-17.681 22.108C376 326 376 326 372.824 326.601l-3.796-.033-2.1.002a435 435 0 0 1-6.85-.082q-2.379-.014-4.758-.021c-4.17-.019-8.338-.068-12.508-.124-4.256-.051-8.512-.074-12.769-.099-8.348-.053-16.695-.139-25.043-.244l-1-3c3.54-2.191 6.395-2.243 10.513-2.227l1.952-.001c2.121.001 4.242.017 6.363.033l4.422.008c3.873.008 7.747.028 11.62.05 3.955.02 7.909.029 11.864.039q11.634.034 23.266.098l.923-1.894c1.062-2.076 2.222-3.702 3.694-5.504l1.571-1.931 1.687-2.046 1.749-2.137a814 814 0 0 1 13.129-15.539 441 441 0 0 0 8.935-10.699C418.9 265 418.9 265 425 265"/><path fill="#8ec5e9" d="m304 324 1 2h70v1l-1.693-.003c-18.812.089-18.812.089-25.338 5.515-6.188 4.677-15.881 5.124-23.399 6.399-2.888.503-5.514 1.066-8.234 2.179C314 342 314 342 309 342v20h-4c-1.586-3.173-1.121-6.588-1.098-10.07l.005-2.413q.01-3.821.031-7.642l.013-5.176q.017-6.35.049-12.699"/><path fill="#6f8199" d="m295 95 2.12.472c16.602 3.885 33.047 11.6 46.88 21.528l2.547 1.773c4.545 3.315 7.504 5.899 9.453 11.227-3.306-1.432-6.018-3.452-8.872-5.63C332.037 112.864 316.285 105.173 298 100l-3.5-1.125c-21.17-5.292-49.028-4.044-69.5 3.125l-2.578.893C201.326 110.394 183.313 121.594 168 138c0-4.56 1.578-7.459 4.676-10.816C205.179 96.884 251.995 85.364 295 95"/><path fill="#60b0e7" d="m140.42 456.87 2.708-.004q4.385-.006 8.77.002l6.128-.003q6.398-.003 12.794.005 8.206.007 16.414-.004 6.315-.004 12.631 0l6.054-.002q4.219-.003 8.438.007l2.531-.006c3.294.012 5.964.086 9.112 1.135 1.187 2.063 1.187 2.063 2 4-2.262 1.13-3.5 1.133-6.01 1.148l-2.54.02c-.462.003-.462.003-2.794.009l-2.937.02q-4.824.029-9.649.042l-3.323.012q-8.7.03-17.403.045c-6.002.01-12.003.045-18.004.085-4.607.026-9.214.034-13.82.038q-3.32.007-6.639.035c-3.093.024-6.186.023-9.279.016l-2.78.039c-6.217-.051-6.217-.051-9.423-2.475C122 459 122 459 122 458a143 143 0 0 1 18.42-1.13"/><path fill="#a7cfec" d="m191.385 339.88 2.715-.004 2.97.01h3.135c3.425 0 6.85.009 10.276.017l7.116.004q9.373.007 18.747.025 9.56.013 19.123.019 18.766.016 37.533.049c-.878 2.464-.878 2.464-3 5-3.294.785-6.576.64-9.947.584l-3.095.007c-3.384 0-6.766-.033-10.15-.067q-3.517-.01-7.034-.015-7.376-.016-14.751-.077c-6.315-.051-12.63-.076-18.943-.091-6.007-.014-12.014-.04-18.021-.067l-3.494-.015q-4.874-.026-9.747-.066l-2.94-.013-2.671-.026-2.33-.017C185 345 185 345 183 344l1-3c2.806-.935 4.485-1.123 7.385-1.12"/><path fill="#296eb5" d="m135.945 501.87 3.563-.01 3.832.008 3.981-.003q4.174-.003 8.35.005 5.288.007 10.578-.004 4.118-.004 8.234 0 2.88.002 5.76-.005c8.3.022 16.486.445 24.757 1.139v1h-5l1 2 21 1v1c-11.052 1.153-21.988 1.045-33.082.879l-5.729-.071a9313 9313 0 0 1-14.948-.203c-5.102-.071-10.204-.135-15.306-.2Q137.967 508.21 123 508c.687-2.437.687-2.437 2-5 3.554-1.268 7.196-1.126 10.945-1.13"/><path fill="#4b5e77" d="M251.023 198.886h3.047q4.974.002 9.95.016l6.906.004q9.082.007 18.165.025 9.27.014 18.54.02 18.185.015 36.369.05l1 2c-4.735 1.202-9.354 1.157-14.205 1.172l-2.786.02q-2.99.021-5.98.036-4.744.026-9.487.065-13.485.106-26.971.182-8.256.05-16.512.121-3.135.023-6.27.036c-28.048.118-28.048.118-36.13 5.593-3.306 3.533-4.437 8.184-5.66 12.774-2.475-2.193-2.96-2.753-3.5-6.188.63-4.794 2.004-8.386 5.5-11.812 3.439-.313 3.439-.313 7 0a101 101 0 0 0 6-3c4.91-1.413 9.962-1.133 15.024-1.114"/><path fill="#abd3ee" d="m233.027 395.718 2.113.008 2.227-.016c2.438-.014 4.875-.013 7.312-.011l5.075-.013q5.324-.01 10.647-.002c4.55.006 9.097-.011 13.646-.034 3.495-.015 6.99-.015 10.485-.012q2.515-.001 5.031-.016c2.346-.012 4.691-.006 7.038.006l2.1-.023c3.066.033 5.072.266 7.761 1.793C308 399 308 399 308 401a8517 8517 0 0 1-30.746.156q-7.138.021-14.276.07c-4.59.033-9.18.05-13.77.059q-2.632.008-5.26.032c-2.453.022-4.904.025-7.356.024l-2.206.032c-4.942-.03-4.942-.03-7.36-1.894-.339-.488-.678-.976-1.026-1.48 2.427-2.426 3.714-2.244 7.027-2.281"/><path fill="#2a6fb6" d="m225 397 2 1v2l75 1v1h-72c.062 26.562.062 26.562.09 34.912l.008 6.592.015 3.425c.001 5.467-.135 10.687-1.113 16.071l-3-1v-2l-1-2a119 119 0 0 1-.114-5.827l.001-3.7.015-4.012.005-4.094q.006-5.391.024-10.782.014-5.5.02-10.999.017-10.793.049-21.586"/><path fill="#f0f3f7" d="M336 53c17.512 4.691 33.004 16.756 46.625 28.312l1.758 1.49c3.244 2.814 6.213 5.604 8.617 9.198v4c-4.825-1.272-7.282-2.892-10.625-6.562C377.045 83.892 371.295 79.401 365 75l-2.504-1.766C353.53 67.229 343.689 62.705 334 58l3-1 2 1v-2l-3-1z"/><path fill="#358ed4" d="m182 342 1 2 3 1c-3.922 5.507-8.22 10.514-12.781 15.5-1.997 2.25-3.842 4.541-5.657 6.938-3.433 4.514-7.233 8.63-11.082 12.792-2.325 2.597-4.475 5.262-6.605 8.02-3.521 4.499-7.428 8.178-11.875 11.75 0-3.659.855-4.141 3-7l1.223-3.188c1.844-4.399 4.715-7.567 7.902-11.062q1.766-1.983 3.527-3.969l1.738-1.949c2.171-2.471 4.238-5.018 6.298-7.582 3.833-4.736 7.88-9.239 12.003-13.723 2.846-3.115 5.587-6.304 8.309-9.527"/><path fill="#2a6fb7" d="M85 344c2.08 3.12 3.589 6.327 5.125 9.73l1.878 4.103.988 2.158c6.192 13.482 12.744 26.098 21.294 38.259C116 401 116 401 115.75 403.375L115 405c-12.241-6.217-18.867-25.94-24.777-37.594a464 464 0 0 0-2.996-5.777c-1.207-2.587-1.928-4.896-2.477-7.691l-.516-2.473c-.257-2.703.111-4.842.766-7.465"/><path fill="#0e4c91" d="m393 354 3 1c-3.724 4.043-6.497 6.712-12.13 7.175-2.64.073-5.272.076-7.913.055l-2.924-.001q-3.05-.005-6.099-.023c-3.121-.018-6.241-.021-9.362-.02q-2.964-.007-5.927-.018l-2.838-.003-2.62-.02-2.31-.011C342 362 342 362 340 361v-4c2.34-1.17 3.719-1.127 6.326-1.129l2.71-.01 2.933.006 3.004-.003q3.147 0 6.294.006 4.83.005 9.659-.007l6.105.004 2.933-.006 2.71.01 2.391.002C387 356 387 356 389 357l1.812-1.562z"/><path fill="#7b828f" d="m236.683 287.757 2.872-.009 3.097.021 3.187.002q3.337.005 6.675.023c3.406.018 6.812.021 10.218.02q3.242.008 6.482.018l3.091.003 2.882.02 2.53.011c2.218.13 4.153.52 6.283 1.134v2l2 2h-57v-3c3.202-2.135 4.008-2.249 7.683-2.243"/><path fill="#2a70b7" d="M251 346h35c2 5 2 5 2 9-13.706.682-24.601-1.977-37-8z"/><path fill="#89c2e7" d="M99 140c1 3 1 3 1 6l2-4 2 1-1.363 2.367c-6.468 11.537-11.45 23.664-16.494 35.875A708 708 0 0 1 82 191l-.949 2.215-.739 1.723L79 198c-1.3-3.899-.399-5.664.812-9.562 1.237-4.044 2.345-7.993 2.938-12.188C85.115 163.544 92.7 151.144 99 140"/><path fill="#0e4c90" d="m122 459 2 1v2l3 1-1 39 4 1-2.312.312c-2.859.732-3.845 1.458-5.688 3.688-.741-5.297-1.128-10.393-1.133-15.754l-.003-2.135q0-2.214.006-4.429.005-3.364-.007-6.727a6261 6261 0 0 1 .008-8.258c.128-3.664.542-7.084 1.129-10.697"/><path fill="#add4ee" d="m304 324 1 2h33v1h-29v35h-4c-1.586-3.173-1.121-6.588-1.098-10.07l.005-2.413q.01-3.821.031-7.642l.013-5.176q.017-6.35.049-12.699"/><path fill="#0f4c8f" d="m172 142 2 1-2.02 2.098c-22.077 23.283-34.709 49.721-42.329 80.746-.667 2.209-1.561 4.126-2.651 6.156-.124-9.561 2.206-17.502 5.473-26.399 2.025-5.61 3.093-10.645 3.527-16.601l1.945-.348L140 188a154 154 0 0 0 2-6c1.827-3.427 3.879-6.708 5.938-10l1.75-2.809c3.527-5.577 7.185-10.992 11.25-16.191l1.282-1.648c2.938-3.633 6.138-6.468 9.78-9.352"/><path fill="#7a818e" d="m326.035 304.797 2.158-.017q2.271-.014 4.542-.02c2.294-.01 4.587-.041 6.88-.072 7.305-.052 13.716-.053 20.385 3.312-3.01 2.007-3.635 2.255-7.013 2.319l-2.426.06-2.604.035-2.678.059c-2.822.06-5.644.106-8.467.152l-5.74.117q-7.034.143-14.072.258c1.185-6.602 2.712-6.164 9.035-6.203"/><path fill="#7b8390" d="M307 99c13.135 3.821 25.836 10.128 37 18l2.562 1.781c4.537 3.315 7.491 5.897 9.438 11.219-3.306-1.432-6.018-3.452-8.872-5.63-11.352-8.656-23.1-15.831-36.749-20.202C308 103 308 103 307.152 100.863z"/><path fill="#348fd6" d="M125 503h34c-1.445 2.889-3.108 3.6-6 5-3.322.341-3.322.341-7.051.293l-1.996-.013a623 623 0 0 1-6.265-.092q-2.135-.023-4.268-.042c-3.474-.032-6.947-.084-10.42-.146z"/><path fill="#2a70b7" d="m141 390 1 3c-1.938 3.188-1.938 3.188-4 6l7-6c-1.95 3.899-4.246 6.864-7.062 10.125l-1.471 1.718C126.864 416.019 126.864 416.019 123 420h-1c-.481-5.258.619-7.535 3.875-11.625l2.457-3.117A923 923 0 0 1 131 402l1.408-1.72A810 810 0 0 1 141 390"/><path fill="#072e6a" d="M338 418c2.625.375 2.625.375 5 1-.336 5.37-3.348 9.27-7 13-2.62 1.688-5.101 2.801-8 4-1-1-1-1-1.336-3.238.461-3.788 2.095-5.222 4.711-7.95l2.461-2.605A590 590 0 0 1 338 418"/><path fill="#0e4c90" d="m130.71 415.637 2.774.002 2.89.049 2.868-.01c4.652.036 8.555.078 12.758 2.322-1.764 2.25-2.636 2.946-5.512 3.373l-2.961-.01-3.224-.001-3.365-.05-3.377.01c-8.294-.055-8.294-.055-10.561-2.322 2.419-2.963 3.93-3.377 7.71-3.363"/><path fill="#3189cf" d="M126 324h2l.699 1.706c4.37 10.594 8.836 20.859 14.77 30.677C145 359 145 359 146 362c-8.041-3.309-11.227-14.294-14.812-21.688l-1.204-2.447c-2.227-4.69-3.561-8.681-3.984-13.865"/><path fill="#286db4" d="M117 294h2v2h2l.77 2.93 1.042 3.945.546 2.063a301 301 0 0 0 4.126 14.109C128 321 128 321 128 324h-2l-1 2c-6.751-21.401-6.751-21.401-8-32"/><path fill="#0a326d" d="M446 293c3.78 3.677 7.24 7.522 10.625 11.562l1.445 1.709C465 314.5 465 314.5 465 317c-6.467-2.069-9.773-6.936-14-12l-1.949-2.297c-3.146-3.901-3.146-3.901-4.051-5.703.352-2.227.352-2.227 1-4"/><path fill="#7a818e" d="m223 203 5 1-1.023 1.941c-2.563 4.971-4.676 9.617-5.977 15.059-1.5-1.062-1.5-1.062-3-3-1.002-6.389 1.388-10.033 5-15"/><path fill="#eff3f6" d="m253.047 37.902 2.337.004q3.682.01 7.366.031l5.004.014q6.123.017 12.246.05v1l-1.725.06c-2.613.095-5.225.204-7.837.314l-2.713.093C262.489 39.7 258.047 40.5 253 42c-2.801.047-2.801.047-5.312-.25l-2.551-.266C243 41 243 41 241 39c3.95-1.304 7.938-1.126 12.047-1.098"/><path fill="#5aaee7" d="m182 342 1 2 3 1a449 449 0 0 1-2.75 3.812l-1.547 2.145c-1.728 2.073-3.488 3.517-5.703 5.043v-3l-4 2c2.627-4.945 6.266-8.878 10-13"/><path fill="#426e9c" d="m169 131 1 3-2 2-.773 2.199c-1.661 3.792-4.137 6.523-6.852 9.613l-1.563 1.811A829 829 0 0 1 155 154c0-3.803 1.138-4.777 3.5-7.688l1.969-2.449L162 142l-3 1c1.477-3.452 3.438-5.65 6.125-8.25l2.195-2.141z"/><path fill="#27629d" d="M276 355h12l2 26-3-1v-24h-11z"/><path fill="#6fb1e0" d="M411 283c0 3.993-1.478 5.153-4 8.188l-2.25 2.73L403 296l1 2-2.312.875C399 300 399 300 396 302c1.306-2.825 2.746-5.071 4.785-7.418l1.608-1.861 1.669-1.909 1.682-1.943c3.996-4.609 3.996-4.609 5.256-5.869"/><path fill="#9ea1b0" d="M237 198c-1 3-1 3-3.75 4.75-3.429 1.319-4.823 1.359-8.25.25 3.556-3.951 6.613-6.796 12-5"/><path fill="#1e5ea0" d="M415 484v2a616 616 0 0 1-3.875 2l-2.18 1.125C407 490 407 490 405 490v-3q1.935-.755 3.875-1.5l2.18-.844C413 484 413 484 415 484"/><path fill="#0c4b92" d="M263 480v9h-3v-8c2-1 2-1 3-1"/><path fill="#2769ac" d="M288 369h1l1 12-3-1z"/><path fill="#435770" d="m231 202 2 1c-4.625 4.875-4.625 4.875-8 6 1.393-3.367 2.979-4.986 6-7"/></svg>